<svg width="26" height="26" viewBox="0 0 26 26" fill="none" xmlns="http://www.w3.org/2000/svg">
<path d="M7.51893 5.41667C7.51853 6.29884 6.98333 7.09269 6.1657 7.42387C5.34806 7.75507 4.41127 7.55747 3.79706 6.92426C3.18284 6.29104 3.01386 5.34866 3.36979 4.54149C3.72573 3.73432 4.5355 3.22354 5.41727 3.25C6.58843 3.28516 7.51947 4.24498 7.51893 5.41667ZM7.58393 9.18667H3.2506V22.75H7.58393V9.18667ZM14.4306 9.18667H10.1189V22.75H14.3873V15.6325C14.3873 11.6675 19.5548 11.2991 19.5548 15.6325V22.75H23.834V14.1591C23.834 7.475 16.1856 7.72417 14.3873 11.0066L14.4306 9.18667Z" fill="white"/>
</svg>
