<svg width="24" height="24" viewBox="0 0 24 24" fill="none" xmlns="http://www.w3.org/2000/svg">
<path d="M19.4177 6.67891C20.4479 7.77257 21.0011 9 21.0011 10.9897C21.0011 14.4891 18.5446 17.6263 14.9705 19.1768L14.0778 17.7992C17.4131 15.9946 18.0649 13.6539 18.3255 12.178C17.7885 12.4557 17.0855 12.5533 16.3964 12.4895C14.592 12.3222 13.1699 10.8409 13.1699 9C13.1699 7.067 14.7369 5.5 16.6699 5.5C17.743 5.5 18.7691 5.99045 19.4177 6.67891ZM9.41766 6.67891C10.4479 7.77257 11.0011 9 11.0011 10.9897C11.0011 14.4891 8.54456 17.6263 4.97048 19.1768L4.07779 17.7992C7.41303 15.9946 8.06489 13.6539 8.32544 12.178C7.78844 12.4557 7.08549 12.5533 6.39636 12.4895C4.59199 12.3222 3.16992 10.8409 3.16992 9C3.16992 7.067 4.73692 5.5 6.66992 5.5C7.74297 5.5 8.76911 5.99045 9.41766 6.67891Z" fill="white"/>
</svg>
