<svg width="31" height="31" viewBox="0 0 31 31" fill="none" xmlns="http://www.w3.org/2000/svg">
<path d="M28.3556 7.22184C27.3811 7.65295 26.3475 7.9361 25.2894 8.06192C26.4042 7.39453 27.2385 6.34463 27.6366 5.1078C26.5891 5.73022 25.4424 6.16829 24.2466 6.40298C23.2372 5.32611 21.8265 4.71586 20.3505 4.71753C17.4026 4.71753 15.0116 7.10766 15.0116 10.0569C15.0116 10.4753 15.0596 10.881 15.1494 11.2725C10.7105 11.0491 6.77805 8.92482 4.14406 5.69422C3.66982 6.50902 3.42058 7.4352 3.42184 8.37795C3.42184 10.2302 4.36468 11.8651 5.79688 12.8222C4.94907 12.7954 4.11994 12.5664 3.37862 12.1542C3.3778 12.1766 3.3778 12.1991 3.3778 12.2203C3.3778 14.8078 5.2182 16.9663 7.66135 17.4564C7.20281 17.5805 6.72986 17.6431 6.25484 17.6428C5.90984 17.6428 5.57504 17.611 5.24961 17.5485C5.92942 19.6692 7.89991 21.2131 10.237 21.2555C8.34579 22.7398 6.01033 23.5451 3.60617 23.5417C3.18067 23.542 2.75552 23.5169 2.33301 23.4666C4.77376 25.0357 7.61479 25.8684 10.5164 25.8653C20.3375 25.8653 25.7073 17.7301 25.7073 10.6751C25.7073 10.4443 25.7017 10.2127 25.6915 9.98429C26.7366 9.22916 27.6388 8.2937 28.3556 7.22184Z" fill="#003D68"/>
</svg>
