<svg width="31" height="31" viewBox="0 0 31 31" fill="none" xmlns="http://www.w3.org/2000/svg">
<path d="M15.6301 5.10645C16.3119 5.1102 18.0178 5.12669 19.8303 5.19929L20.4729 5.22731C22.2978 5.31371 24.1212 5.46131 25.0255 5.71347C26.2318 6.05234 27.1799 7.04113 27.5003 8.29451C28.0106 10.2848 28.0744 14.1695 28.0823 15.1096L28.0835 15.3044V15.3181C28.0835 15.3181 28.0835 15.3228 28.0835 15.3319L28.0823 15.5267C28.0744 16.4667 28.0106 20.3514 27.5003 22.3418C27.1755 23.5997 26.2273 24.5886 25.0255 24.9228C24.1212 25.1749 22.2978 25.3225 20.4729 25.4089L19.8303 25.4369C18.0178 25.5095 16.3119 25.526 15.6301 25.5298L15.3308 25.5308H15.3175C15.3175 25.5308 15.3131 25.5308 15.3043 25.5308L15.0053 25.5298C13.5622 25.5219 7.52855 25.4567 5.60956 24.9228C4.40329 24.5839 3.45519 23.5951 3.1347 22.3418C2.62448 20.3514 2.5607 16.4667 2.55273 15.5267V15.1096C2.5607 14.1695 2.62448 10.2848 3.1347 8.29451C3.45963 7.03648 4.40773 6.04771 5.60956 5.71347C7.52855 5.17951 13.5622 5.11439 15.0053 5.10645H15.6301ZM12.7644 10.85V19.7861L20.4239 15.3181L12.7644 10.85Z" fill="#003D68"/>
</svg>
