<svg width="60" height="60" viewBox="0 0 60 60" fill="none" xmlns="http://www.w3.org/2000/svg">
<path d="M41.7736 8.29136C38.6189 6.16923 34.3291 6.85724 31.6447 9.54208L30.0728 11.1135L28.26 9.30105C24.819 5.87059 18.9909 6.27246 16.1243 10.5287C14.0021 13.6831 14.6784 17.973 17.3748 20.6573L28.5705 31.8531C29.3966 32.6792 30.7274 32.6792 31.5535 31.8531L42.9902 20.4163C46.4423 16.9873 46.0284 11.1591 41.7736 8.29136Z" fill="#49A0DE"/>
<path d="M24.6119 36.7639L16.6508 28.6194C16.2947 28.2525 15.802 28.0463 15.2744 28.0343C14.7577 28.0343 14.2649 28.2298 13.8981 28.5966C13.2782 29.2165 13.1523 30.1793 13.5995 30.937L13.8405 31.3387C15.091 33.4727 16.5129 35.4906 18.1196 37.3838L19.5991 39.1272C19.8173 39.3908 19.9312 39.724 19.8976 40.0682C19.8748 40.4125 19.7141 40.7217 19.4504 40.9517C19.1866 41.1701 18.8533 41.2839 18.5092 41.2503C18.1651 41.2277 17.8558 41.0549 17.6376 40.7913L16.2264 39.1378C14.4711 37.0612 12.8993 34.8479 11.5349 32.4956L11.3863 32.2438C10.3648 30.5006 10.6057 28.2753 12.0289 26.8414C12.1548 26.7155 12.2927 26.5896 12.4305 26.4745L9.3097 19.775C8.95359 19.0063 8.1515 18.4787 7.30265 18.4667C6.66001 18.4547 6.06413 18.7077 5.6169 19.1777C5.16971 19.6478 4.9515 20.2556 5.00907 20.898L6.36147 38.6221C6.48736 40.2742 7.24508 41.8116 8.4716 42.924L14.8836 48.7282C15.2733 49.0844 15.5142 49.577 15.549 50.1047L15.7097 52.307C15.7444 52.8692 16.2144 53.3047 16.7875 53.3047H26.0901C26.7208 53.3047 27.2148 52.765 27.168 52.1462L26.216 40.0908C26.0458 38.8286 25.4835 37.6475 24.6119 36.7639Z" fill="#243972"/>
<path d="M54.5734 19.1656C54.1264 18.696 53.5291 18.443 52.8877 18.455C52.0388 18.467 51.2356 18.9942 50.8808 19.7629L47.7609 26.4614C47.8987 26.5765 48.0365 26.7024 48.1628 26.8283C49.5844 28.2622 49.8149 30.4875 48.8052 32.2308L48.6564 32.4825C47.2909 34.8337 45.7204 37.0482 43.9651 39.1247L42.5636 40.7782C42.3452 41.0418 42.036 41.2026 41.6917 41.2372C41.348 41.2602 41.0157 41.157 40.7507 40.9386C40.4871 40.7096 40.3263 40.3994 40.3037 40.0551C40.2807 39.7109 40.3839 39.3787 40.6019 39.1141L42.0816 37.3706C43.6761 35.4775 45.1102 33.4585 46.3604 31.3256L46.6015 30.9239C47.0489 30.1674 46.9227 29.2034 46.3028 28.5836C45.936 28.2167 45.442 28.0105 44.9268 28.0213C44.3991 28.0333 43.9171 28.2395 43.5503 28.6063L35.5892 36.7508C34.7176 37.6452 34.1553 38.8155 34.0174 40.0537L33.0654 52.1095C33.0199 52.7399 33.5127 53.2676 34.1325 53.2676H43.4351C43.9973 53.2676 44.4673 52.8311 44.5129 52.2699L44.6738 50.0676C44.7083 49.5399 44.9494 49.0459 45.3392 48.6911L51.7512 42.8869C52.9789 41.7745 53.7351 40.2371 53.8614 38.585L55.1802 20.8849C55.2388 20.2449 55.0204 19.6371 54.5734 19.1656Z" fill="#243972"/>
</svg>
