<svg width="60" height="60" viewBox="0 0 60 60" fill="none" xmlns="http://www.w3.org/2000/svg">
<path d="M29.4991 19.9746C31.4246 19.9746 32.985 18.4128 32.985 16.4873C32.985 14.5617 31.4246 12.9999 29.4991 12.9999C27.5721 12.9999 26.0117 14.5617 26.0117 16.4873C26.0117 18.4128 27.5721 19.9746 29.4991 19.9746Z" fill="#029FEE"/>
<path d="M33.3044 35.465C32.9743 33.1504 32.8086 30.7894 32.8086 28.4482V23.9018H36.7777L37.4912 22.4047C37.7875 21.7853 38.2018 21.2432 38.699 20.8021H20.2988C20.7974 21.2432 21.2117 21.7853 21.5067 22.4047L22.2215 23.9018H26.1892V28.4482C26.1892 30.788 26.0235 33.149 25.6935 35.465L24.2707 45.4734C24.1303 46.4621 24.8185 47.3765 25.8058 47.5169C25.8929 47.5295 25.9772 47.5352 26.0628 47.5352C26.9491 47.5352 27.7229 46.8849 27.8507 45.9818L29.2735 35.9734C29.3592 35.3737 29.4336 34.7698 29.4982 34.1616C29.5642 34.7698 29.6387 35.3737 29.7243 35.9734L31.1471 45.9818C31.2749 46.8849 32.0488 47.5352 32.935 47.5352C33.0207 47.5352 33.1049 47.5295 33.192 47.5169C34.1794 47.3765 34.8676 46.4621 34.7271 45.4734L33.3044 35.465Z" fill="#029FEE"/>
<path d="M51.8489 30.0788L48.4528 22.9608C47.8279 21.649 46.4852 20.8021 45.0329 20.8021H42.0778C40.6256 20.8021 39.2829 21.649 38.6579 22.9608L35.2633 30.0788C34.8939 30.8513 35.2211 31.7768 35.9936 32.1448C36.7675 32.5142 37.6917 32.1855 38.0596 31.413L40.2464 26.8302V28.4482C40.2464 30.7894 40.0793 33.1504 39.7506 35.465L38.3265 45.4734C38.186 46.4621 38.8742 47.3764 39.863 47.5183C39.9487 47.5295 40.0343 47.5352 40.12 47.5352C41.0048 47.5352 41.7787 46.8849 41.9065 45.9818L43.3307 35.9748C43.415 35.3737 43.4908 34.7684 43.5554 34.163C43.62 34.7684 43.6958 35.3737 43.7815 35.9748L45.2043 45.9818C45.3321 46.8849 46.1059 47.5352 46.9922 47.5352C47.0765 47.5352 47.1621 47.5295 47.2478 47.5183C48.2365 47.3764 48.9247 46.4621 48.7843 45.4734L47.3616 35.465C47.0315 33.1504 46.8644 30.7894 46.8644 28.4482V26.8302L49.0511 31.413C49.3166 31.9706 49.8714 32.2965 50.45 32.2965C50.6747 32.2965 50.9009 32.2473 51.1172 32.1448C51.8896 31.7768 52.2169 30.8513 51.8489 30.0788Z" fill="#0E3A87"/>
<path d="M43.5557 19.9746C45.4813 19.9746 47.043 18.4128 47.043 16.4873C47.043 14.5617 45.4813 12.9999 43.5557 12.9999C41.6302 12.9999 40.0684 14.5617 40.0684 16.4873C40.0684 18.4128 41.6302 19.9746 43.5557 19.9746Z" fill="#0E3A87"/>
<path d="M20.342 22.9608C19.717 21.649 18.3744 20.8021 16.9221 20.8021H13.9671C12.5148 20.8021 11.1721 21.649 10.5471 22.9608L7.15108 30.0788C6.7831 30.8513 7.11034 31.7768 7.88281 32.1448C8.65668 32.5142 9.58086 32.1855 9.94883 31.413L12.1356 26.8302V28.4482C12.1356 30.788 11.9685 33.149 11.6384 35.465L10.2157 45.4734C10.0752 46.4621 10.7634 47.3779 11.7522 47.5183C11.8378 47.5295 11.9235 47.5352 12.0092 47.5352C12.894 47.5352 13.6679 46.8849 13.7957 45.9818L15.2185 35.9748C15.3041 35.3737 15.38 34.7684 15.4446 34.163C15.5092 34.7684 15.585 35.3737 15.6693 35.9748L17.0935 45.9818C17.2213 46.8849 17.9951 47.5352 18.8799 47.5352C18.9656 47.5352 19.0513 47.5295 19.137 47.5183C20.1257 47.3764 20.8139 46.4621 20.6735 45.4734L19.2493 35.4664C18.9207 33.149 18.7535 30.788 18.7535 28.4482V26.8302L20.9403 31.413C21.2058 31.9706 21.7606 32.2965 22.3392 32.2965C22.5625 32.2965 22.7901 32.2473 23.0063 32.1448C23.7788 31.7768 24.1061 30.8513 23.7367 30.0788L20.342 22.9608Z" fill="#0E3A87"/>
<path d="M15.4444 19.9746C17.3699 19.9746 18.9317 18.4128 18.9317 16.4873C18.9317 14.5617 17.3699 12.9999 15.4444 12.9999C13.5188 12.9999 11.957 14.5617 11.957 16.4873C11.957 18.4128 13.5188 19.9746 15.4444 19.9746Z" fill="#0E3A87"/>
</svg>
