<svg width="60" height="60" viewBox="0 0 60 60" fill="none" xmlns="http://www.w3.org/2000/svg">
<path d="M13.6487 43.5493C12.1648 43.2238 11.1882 41.8477 11.37 40.3469L11.8942 36.003C12.2198 33.3438 13.9743 31.1708 16.346 30.2492C15.7118 29.689 15.1876 29.0359 14.8071 28.277C14.5534 28.222 14.3018 28.1692 14.0482 28.1502H14.0292C13.3063 28.4398 12.5093 28.5856 11.6765 28.5856C10.8458 28.5856 10.0679 28.4398 9.32382 28.1502H9.30697C6.82747 28.4038 4.83837 30.3401 4.52975 32.8365L4.00551 37.1614C3.95055 37.7215 4.312 38.2648 4.85525 38.3726C5.65215 38.5544 6.46596 38.6812 7.27977 38.789L7.878 48.9226C7.91394 49.7195 8.58401 50.3516 9.37881 50.3516H13.9933C14.4097 50.3516 14.8071 50.1719 15.0797 49.8823L14.7162 43.748C14.3378 43.6931 13.9933 43.6212 13.6487 43.5493Z" fill="#243972"/>
<path d="M11.6778 26.7734C12.5656 26.7734 13.3964 26.5388 14.1214 26.1414C14.0496 25.8159 14.0305 25.4904 14.0305 25.1458C14.0305 23.1017 14.9352 21.2564 16.3832 20.0071C15.6772 18.1068 13.8318 16.7307 11.6778 16.7307C8.91084 16.7307 6.66602 18.9925 6.66602 21.7616C6.66602 24.5307 8.91084 26.7734 11.6778 26.7734Z" fill="#243972"/>
<path d="M22.8053 46.932C21.3214 46.6255 20.3448 45.2494 20.5245 43.7295L21.0487 39.4047C21.3764 36.7645 23.1308 34.5915 25.4835 33.634C24.8493 33.0907 24.342 32.4396 23.9637 31.6977C23.71 31.6237 23.4373 31.5709 23.1668 31.5519C22.4438 31.8245 21.6659 31.9683 20.85 31.9683C20.0362 31.9683 19.2583 31.8245 18.5354 31.5519C16.0368 31.7696 13.9928 33.6868 13.6863 36.2213L13.179 40.563C13.1071 41.1253 13.4686 41.6495 14.0287 41.7764C14.8066 41.9391 15.6204 42.066 16.4363 42.1738L17.0325 52.3243C17.0684 53.1212 17.7385 53.7363 18.5354 53.7363H23.1498C23.5642 53.7363 23.9637 53.5566 24.2342 53.284L23.8728 47.1497C23.5113 47.0778 23.1498 47.0059 22.8053 46.932Z" fill="#243972"/>
<path d="M20.8516 30.1582C21.7204 30.1582 22.5533 29.9236 23.2762 29.5431C23.2043 29.2176 23.1874 28.892 23.1874 28.5475C23.1874 26.5034 24.0921 24.6581 25.538 23.3919C24.8341 21.4916 23.0056 20.1345 20.8516 20.1345C18.0847 20.1345 15.8398 22.3773 15.8398 25.1464C15.8398 27.9155 18.0847 30.1582 20.8516 30.1582Z" fill="#243972"/>
<path d="M55.4672 32.8365C55.1606 30.3211 53.1504 28.3848 50.6899 28.1502C50.6899 28.1692 50.6899 28.1692 50.673 28.1502C49.948 28.4398 49.151 28.5856 48.3203 28.5856C47.4875 28.5856 46.6905 28.4398 45.9676 28.1502C45.9507 28.1692 45.9508 28.1692 45.9508 28.1502C45.6971 28.1692 45.4434 28.222 45.2066 28.277C44.8283 29.0359 44.302 29.689 43.6699 30.2302C46.0226 31.1708 47.777 33.3438 48.1026 36.003L48.6268 40.3469C48.8086 41.8477 47.832 43.2238 46.365 43.5493C46.0226 43.6212 45.659 43.6931 45.2806 43.748L44.9361 49.8823C45.2067 50.1719 45.6062 50.3516 46.0226 50.3516H50.6349C51.4318 50.3516 52.102 49.7195 52.1379 48.9226L52.717 38.789C53.5499 38.6812 54.3637 38.5544 55.1416 38.3726C55.7017 38.2648 56.0654 37.7215 55.9914 37.1614L55.4672 32.8365Z" fill="#243972"/>
<path d="M45.8946 26.1583C46.6175 26.5388 47.4503 26.7734 48.3191 26.7734C51.0861 26.7734 53.331 24.5307 53.331 21.7616C53.331 18.9925 51.0861 16.7307 48.3191 16.7307C46.1651 16.7307 44.3388 18.1068 43.6328 20.0071C45.0787 21.2564 45.9834 23.1017 45.9834 25.1458C45.9834 25.4904 45.9665 25.8328 45.8946 26.1583Z" fill="#243972"/>
<path d="M46.8358 40.5611L46.3095 36.2193C46.003 33.6848 43.9758 31.7676 41.4794 31.5499C40.7565 31.8226 39.9765 31.9663 39.1626 31.9663C38.3488 31.9663 37.5709 31.8226 36.8459 31.5499C36.5753 31.5689 36.3048 31.6218 36.0511 31.6957C35.6706 32.4377 35.1633 33.0887 34.5312 33.613C36.8839 34.5726 38.6384 36.7435 38.9471 39.4027L39.4713 43.7276C39.651 45.2474 38.6744 46.6235 37.2095 46.93C36.865 47.004 36.5035 47.0758 36.123 47.1477L35.7616 53.282C36.0511 53.5547 36.4316 53.7344 36.865 53.7344H41.4603C42.2763 53.7344 42.9273 53.1192 42.9823 52.3223L43.5615 42.1718C44.3923 42.064 45.206 41.9372 45.9839 41.7744C46.5462 41.6476 46.9077 41.1234 46.8358 40.5611Z" fill="#243972"/>
<path d="M36.7383 29.5431C37.4634 29.9236 38.2941 30.1582 39.1629 30.1582C41.932 30.1582 44.1748 27.9155 44.1748 25.1464C44.1748 22.3773 41.932 20.1345 39.1629 20.1345C37.011 20.1345 35.1826 21.4916 34.4766 23.3919C35.9245 24.6581 36.8293 26.5034 36.8293 28.5475C36.8293 28.892 36.8102 29.2176 36.7383 29.5431Z" fill="#243972"/>
<path d="M37.6775 43.9465L37.1533 39.6217C36.8447 37.1062 34.8365 35.17 32.3761 34.9353C32.3761 34.9544 32.376 34.9544 32.3591 34.9353C31.6341 35.2249 30.8393 35.3708 30.0064 35.3708C29.1736 35.3708 28.3768 35.2249 27.6538 34.9353C27.6348 34.9544 27.6348 34.9544 27.6348 34.9353C25.1743 35.17 23.1662 37.1062 22.8575 39.6217L22.3333 43.9465C22.2614 44.5067 22.6229 45.0499 23.1852 45.1599C23.9631 45.3395 24.7769 45.4664 25.6097 45.5742L26.1889 55.7078C26.2418 56.5047 26.8928 57.1367 27.6897 57.1367H32.3042C33.1011 57.1367 33.7691 56.5047 33.824 55.7078L34.4032 45.5742C35.217 45.4664 36.0309 45.3395 36.8278 45.1599C37.371 45.0499 37.7515 44.5067 37.6775 43.9465Z" fill="#243972"/>
<path d="M30.0061 33.5547C32.7752 33.5547 35.0201 31.3098 35.0201 28.5407C35.0201 25.7716 32.7752 23.5246 30.0061 23.5246C27.237 23.5246 24.9922 25.7716 24.9922 28.5407C24.9922 31.3098 27.237 33.5547 30.0061 33.5547Z" fill="#243972"/>
<path d="M25.2458 10.0793C25.7933 9.53399 26.6789 9.53187 27.2264 10.0793L28.761 11.6119L32.4623 7.91059C33.0077 7.36311 33.8954 7.36311 34.4429 7.91059C34.9904 8.45806 34.9904 9.34375 34.4429 9.89123L29.7503 14.5839C29.4881 14.8481 29.133 14.9961 28.761 14.9961C28.3889 14.9961 28.0317 14.8481 27.7696 14.586L25.2458 12.0621C24.6983 11.5146 24.6983 10.6268 25.2458 10.0793ZM29.9997 20.1348C35.0073 20.1348 39.068 16.0741 39.068 11.0665C39.068 6.05888 35.0073 2.00037 29.9997 2.00037C24.9921 2.00037 20.9336 6.05888 20.9336 11.0665C20.9336 16.0741 24.9921 20.1348 29.9997 20.1348Z" fill="#49A0DE"/>
</svg>
