<svg width="60" height="60" viewBox="0 0 60 60" fill="none" xmlns="http://www.w3.org/2000/svg">
<path d="M22.9076 12.3573C25.5312 12.3573 27.6578 14.4839 27.6578 17.1075C27.6578 19.7311 25.5312 21.8577 22.9076 21.8577C20.284 21.8577 18.1575 19.7311 18.1575 17.1075C18.1575 14.4839 20.284 12.3573 22.9076 12.3573ZM20.2574 30.7809C20.6243 31.7733 20.9646 32.7373 21.2698 33.6313C21.8035 35.1958 24.0118 35.1958 24.5455 33.6313C24.8508 32.7373 25.191 31.775 25.5579 30.7826C26.607 27.9438 28.0148 25.2201 29.9395 22.8851C31.2355 21.3139 32.0143 19.3024 32.0143 17.1075C32.0143 11.932 27.6962 7.76394 22.4656 8.01079C17.7655 8.23262 13.9327 12.1472 13.8043 16.8523C13.7426 19.104 14.4998 21.1738 15.8007 22.7933C17.7205 25.1834 19.1933 27.9054 20.2574 30.7809Z" fill="#14A0DE"/>
<path d="M48.8926 32.5556C48.4856 31.5982 47.5466 30.9761 46.5075 30.9761H39.2138L36.9805 36.4768L52.1984 40.3613L48.8926 32.5556Z" fill="#203A72"/>
<path d="M35.719 30.9773H28.9657C28.8356 31.2808 28.7172 31.5944 28.5971 31.908C28.2735 32.7936 27.9383 33.7226 27.6147 34.6733C26.9225 36.6948 25.0311 38.0458 22.9029 38.0458C20.7847 38.0458 18.8933 36.6948 18.2011 34.6733C17.8775 33.7226 17.5423 32.7936 17.2187 31.908C17.1003 31.5944 16.9802 31.2808 16.8518 30.9773H14.4951C13.4576 30.9773 12.5169 31.5944 12.1066 32.5551L7.77344 42.7793H30.9221L35.719 30.9773Z" fill="#203A72"/>
<path d="M6.40224 46.0259L5.20803 48.8463C4.48417 50.5542 5.73842 52.4473 7.59312 52.4473H35.5571L31.1605 46.0259H6.40224Z" fill="#203A72"/>
<path d="M55.7916 48.8482L53.7868 44.1147L35.7501 39.5113L33.8438 44.2082L39.4862 52.4492H53.4065C55.2612 52.4492 56.5155 50.5562 55.7916 48.8482Z" fill="#203A72"/>
</svg>
