<svg width="38" height="34" viewBox="0 0 38 34" fill="none" xmlns="http://www.w3.org/2000/svg">
<path d="M19.015 3.27832C19.4675 3.27832 19.8816 2.86419 19.8816 2.37466V0.904779C19.8816 0.415245 19.4675 -0.000153542 19.015 -0.000153542C18.5625 -0.000153542 18.1484 0.415245 18.1484 0.904779V2.37466C18.1484 2.86419 18.5625 3.27832 19.015 3.27832Z" fill="#14A0DE"/>
<path d="M15.2095 3.61491C15.3603 3.91656 15.662 4.06738 15.9636 4.06738C16.1144 4.06738 16.2653 4.02903 16.4148 3.95362C16.8289 3.72867 16.981 3.16244 16.7548 2.74832L16.0007 1.46761C15.7745 1.05348 15.2095 0.90266 14.7954 1.12889C14.3813 1.35513 14.2304 1.92007 14.4567 2.33419L15.2095 3.61491Z" fill="#14A0DE"/>
<path d="M21.6137 3.9178C21.7646 3.99321 21.9154 4.03027 22.0662 4.03027C22.3679 4.03027 22.6682 3.87945 22.8191 3.57909L23.5348 2.29708C23.7611 1.88296 23.6486 1.31802 23.1961 1.09178C22.782 0.828484 22.217 0.979314 21.9908 1.43178L21.275 2.71249C21.0488 3.12661 21.1996 3.69156 21.6137 3.9178Z" fill="#14A0DE"/>
<path d="M17.3976 10.2291L18.2003 7.74054C18.4291 7.01583 18.0086 6.21059 17.2826 5.98052C17.1433 5.93706 17.0001 5.91405 16.8544 5.91405C16.2345 5.91405 15.7002 6.31029 15.5238 6.89952L14.7199 9.38809C14.3134 10.6496 13.3765 11.6313 12.1482 12.0812C11.5449 12.2972 10.9429 12.4071 10.3588 12.4071H7.02793C5.63474 12.4071 4.33613 13.1318 3.63442 14.3013L0.221742 19.6402C0.0172364 19.9559 -0.0479696 20.3317 0.0351106 20.6985C0.119469 21.0704 0.349552 21.3874 0.683151 21.5919C0.908107 21.7428 1.17267 21.8207 1.44747 21.8207C1.92423 21.8207 2.37798 21.5715 2.63361 21.1714L5.37142 16.8334V21.4398C5.37142 21.7351 5.32798 22.0291 5.2449 22.3115L2.45979 31.729C2.21438 32.5585 2.61955 33.4481 3.38134 33.7549C3.57817 33.8328 3.78267 33.8737 3.98973 33.8737C4.70039 33.8737 5.33821 33.397 5.53888 32.7157L8.3521 23.1999C8.40961 23.0081 8.61666 22.8867 8.82117 22.9506C8.97966 22.9992 9.08192 23.1526 9.08192 23.3175V32.23C9.08192 33.1158 9.78235 33.8559 10.6668 33.8737C11.573 33.8904 12.3144 33.1593 12.3144 32.2569L12.3374 14.8957C12.3374 14.8957 12.8627 14.7806 13.1056 14.6809C15.1532 13.9319 16.7176 12.3087 17.3976 10.2291Z" fill="#203A72"/>
<path d="M8.80387 11.3623C10.6725 11.3623 12.1872 9.84769 12.1872 7.97902C12.1872 6.11163 10.6725 4.59702 8.80387 4.59702C6.93649 4.59702 5.42188 6.11163 5.42188 7.97902C5.42188 9.84769 6.93649 11.3623 8.80387 11.3623Z" fill="#203A72"/>
<path d="M37.7774 19.6402L34.366 14.3013C33.6643 13.1318 32.3644 12.4071 30.9725 12.4071H27.6403C27.0575 12.4071 26.4542 12.2972 25.8509 12.0812C24.6226 11.6313 23.6857 10.6496 23.2792 9.38809L22.4766 6.89952C22.2989 6.31029 21.7646 5.91405 21.1447 5.91405C21.0003 5.91405 20.8559 5.93706 20.7165 5.98052C19.9905 6.21059 19.57 7.01583 19.7988 7.74054L20.6015 10.2291C21.2815 12.3087 22.8459 13.9319 24.8948 14.6809C25.1377 14.7806 25.663 14.8957 25.663 14.8957L25.6847 32.2569C25.6847 33.1593 26.4261 33.8904 27.3323 33.8737C28.2168 33.8559 28.9172 33.1158 28.9172 32.23V23.3175C28.9172 23.1526 29.0195 22.9992 29.1779 22.9506C29.3825 22.8867 29.5895 23.0081 29.647 23.1999L32.4602 32.7157C32.6622 33.397 33.2987 33.8737 34.0094 33.8737C34.2164 33.8737 34.4222 33.8328 34.6178 33.7549C35.3796 33.4481 35.7847 32.5585 35.5393 31.729L32.7542 22.3115C32.6711 22.0291 32.629 21.7351 32.629 21.4398V16.8334L35.3655 21.1714C35.6211 21.5715 36.0749 21.8207 36.5516 21.8207C36.8264 21.8207 37.091 21.7428 37.316 21.5919C37.6496 21.3874 37.8796 21.0704 37.964 20.6985C38.0483 20.3317 37.9819 19.9559 37.7774 19.6402Z" fill="#203A72"/>
<path d="M29.1958 11.3623C31.0644 11.3623 32.5778 9.84769 32.5778 7.97902C32.5778 6.11163 31.0644 4.59702 29.1958 4.59702C27.3271 4.59702 25.8125 6.11163 25.8125 7.97902C25.8125 9.84769 27.3271 11.3623 29.1958 11.3623Z" fill="#203A72"/>
<path d="M22.3106 17.9616C21.4197 17.3494 20.2003 17.5386 19.436 18.3016L18.9938 18.7439L18.4838 18.2339C17.5188 17.2702 15.8866 17.3788 15.0749 18.5636C14.464 19.4545 14.6519 20.6739 15.4162 21.4369L18.6538 24.6745C18.8417 24.8624 19.1459 24.8624 19.3337 24.6745L22.6391 21.3679C23.6028 20.4042 23.4929 18.7733 22.3106 17.9616Z" fill="#14A0DE"/>
</svg>
