<svg width="35" height="32" viewBox="0 0 35 32" fill="none" xmlns="http://www.w3.org/2000/svg">
<path d="M8.16171 3.05162C9.80618 3.05162 11.1398 4.38525 11.1398 6.02971C11.1398 7.67418 9.80618 9.00781 8.16171 9.00781C6.51724 9.00781 5.18359 7.67418 5.18359 6.02971C5.18359 4.38525 6.51724 3.05162 8.16171 3.05162Z" fill="#243972"/>
<path d="M8.8977 15.9938L8.2726 16.6932C8.23604 16.7664 8.12517 16.7664 8.0886 16.6932L7.4635 15.9938C7.42694 15.9573 7.42694 15.9207 7.42694 15.8841L7.9412 12.097H7.68407C7.61093 12.097 7.53667 12.0238 7.53667 11.9507V11.1782C7.53667 11.105 7.61093 11.0307 7.68407 11.0307H8.67713C8.75027 11.0307 8.82342 11.105 8.82342 11.1782V11.9872C8.82342 12.0604 8.75027 12.1335 8.67713 12.1335H8.41889L8.93426 15.9207C8.93426 15.9207 8.93427 15.9573 8.8977 15.9938ZM16.1395 5.0014C15.4413 4.74427 14.6688 5.11225 14.4482 5.81049L13.6768 8.05264C13.4197 8.82516 12.758 9.41369 11.9855 9.59768C10.8096 9.89138 9.55936 10.0388 8.34573 10.0388H6.36072C5.4042 10.0388 4.48541 10.4433 3.89801 11.1782C2.35297 12.9792 1.28677 15.0385 0.625095 17.3172L0.55193 17.5378C0.40451 18.1263 0.625068 18.7148 1.14046 19.0085V20.149H0.588534C0.258269 20.149 0 20.4061 0 20.7364V25.0013C0 25.3327 0.258269 25.5898 0.588534 25.5898H2.46382C2.79408 25.5898 3.05235 25.3327 3.05235 25.0013V20.7364C3.05235 20.4061 2.79408 20.149 2.46382 20.149H1.94845V19.2291C2.46385 19.1925 2.94153 18.8245 3.12552 18.2737L3.16208 18.0897C3.56662 16.6555 4.1917 15.2956 5.03736 14.082L5.0008 18.6417L4.11858 28.5302C4.0443 29.2296 4.52197 29.8547 5.18365 30.001C5.25793 30.001 5.36765 30.0375 5.44193 30.0375C6.14018 30.0375 6.69101 29.5233 6.76529 28.825L7.57435 19.6336C7.61091 19.3399 7.86807 19.1194 8.16176 19.1194C8.4566 19.1194 8.71373 19.3399 8.7503 19.6336L9.5594 28.7519C9.63254 29.4136 10.1102 30.001 10.7719 30.0375C11.6175 30.1118 12.2792 29.4136 12.2061 28.6045L11.3238 18.6782L11.2873 12.5381C11.7284 12.4649 12.1695 12.3918 12.574 12.2809C14.2654 11.8764 15.5887 10.6639 16.1761 9.00915L16.9486 6.76586C17.2057 5.99448 16.8389 5.25852 16.1395 5.0014Z" fill="#243972"/>
<path d="M26.7652 3.05162C28.4096 3.05162 29.7421 4.38525 29.7421 6.02971C29.7421 7.67418 28.4096 9.00781 26.7652 9.00781C25.1196 9.00781 23.7871 7.67418 23.7871 6.02971C23.7871 4.38525 25.1196 3.05162 26.7652 3.05162Z" fill="#243972"/>
<path d="M27.4628 15.9925L26.8377 16.6919C26.8012 16.765 26.6903 16.765 26.6537 16.6919L26.0286 15.9925C25.9921 15.9559 25.9921 15.9194 25.9921 15.8828L26.5063 12.0956H26.2492C26.1761 12.0956 26.1029 12.0225 26.1029 11.9493V11.1768C26.1029 11.1037 26.1761 11.0294 26.2492 11.0294H27.2423C27.3154 11.0294 27.3897 11.1037 27.3897 11.1768V11.9859C27.3897 12.059 27.3154 12.1322 27.2423 12.1322H26.9851L27.4994 15.9194C27.4994 15.9194 27.4994 15.9559 27.4628 15.9925ZM34.3378 20.1477H33.8224V19.0072C34.3013 18.7135 34.5584 18.0884 34.411 17.5364L34.3744 17.3536C33.7493 15.0737 32.6465 13.0144 31.1026 11.2134C30.4775 10.4786 29.5953 10.074 28.6388 10.074H26.6537C25.4401 10.074 24.191 9.9266 23.014 9.63291C22.2049 9.44892 21.5809 8.86038 21.3226 8.089L20.5513 5.84572C20.2941 5.14747 19.5582 4.7795 18.8599 5.03662C18.1617 5.29489 17.7937 6.02971 18.0508 6.72795L18.8234 8.97124C19.3742 10.6248 20.7353 11.8385 22.4254 12.243C22.8677 12.3527 23.2711 12.427 23.7122 12.5002L23.6756 18.6403L22.7934 28.4923C22.7203 29.154 23.1248 29.8156 23.7865 29.9631C24.5956 30.1836 25.367 29.5951 25.4401 28.7871L26.2492 19.5957C26.2858 19.302 26.5441 19.0815 26.8377 19.0815C27.1314 19.0815 27.3897 19.302 27.4263 19.5957L28.2342 28.7871C28.3085 29.4854 28.897 29.9996 29.5587 29.9996C29.5953 29.9996 29.6318 29.9996 29.6684 29.9996C30.4044 29.9265 30.9552 29.3014 30.882 28.5666L29.9998 18.6403L29.9621 14.0806C30.8078 15.2943 31.4329 16.6542 31.8374 18.0884L31.874 18.2724C32.0214 18.8232 32.4991 19.1912 33.0511 19.2277V20.1477H32.5356C32.2054 20.1477 31.9483 20.4048 31.9483 20.7351V24.9999C31.9483 25.3313 32.2054 25.5885 32.5356 25.5885H34.411C34.7424 25.5885 34.9995 25.3313 34.9995 24.9999V20.7351C34.9264 20.4048 34.6681 20.1477 34.3378 20.1477Z" fill="#243972"/>
<path d="M14.633 3.45678C14.7438 3.71391 15.0009 3.86133 15.258 3.86133C15.3323 3.86133 15.442 3.86133 15.5152 3.82476C15.8466 3.67734 16.0306 3.30936 15.8831 2.94253L15.2946 1.54491C15.1483 1.21464 14.7804 1.03065 14.4124 1.17807C14.0821 1.32435 13.8982 1.69232 14.0456 2.0603L14.633 3.45678Z" fill="#49A0DE"/>
<path d="M19.413 3.82476C19.4873 3.86133 19.597 3.86133 19.6713 3.86133C19.9285 3.86133 20.1856 3.71391 20.2964 3.45678L20.8838 2.0603C21.0312 1.72889 20.8473 1.32435 20.517 1.17807C20.1856 1.03065 19.781 1.21464 19.6348 1.54491L19.0462 2.94253C18.9354 3.27279 19.0828 3.67734 19.413 3.82476Z" fill="#49A0DE"/>
<path d="M18.1253 2.75825V1.25092C18.1253 0.882941 17.8304 0.589246 17.4624 0.589246C17.0956 0.589246 16.8008 0.882941 16.8008 1.25092V2.75825C16.8008 3.12623 17.0956 3.41992 17.4624 3.41992C17.8304 3.41992 18.1253 3.12623 18.1253 2.75825Z" fill="#49A0DE"/>
</svg>
