<svg width="32" height="32" viewBox="0 0 32 32" fill="none" xmlns="http://www.w3.org/2000/svg">
<path d="M12.6513 24.742C12.3914 24.742 12.1303 24.6985 11.8915 24.6226C10.7417 24.2538 10.2107 23.1798 9.7763 22.3228C9.603 21.9865 9.34306 21.4658 9.17975 21.3465C9.01756 21.2272 8.44211 21.1404 8.06329 21.0862C7.89999 21.0644 7.72669 21.0319 7.55228 20.9994L4.67836 26.8248C4.39619 27.3997 4.84056 28.0614 5.48044 28.0072L8.18215 27.7794C8.48543 27.7577 8.7676 27.8987 8.93091 28.1482L10.3951 30.4263C10.7417 30.9688 11.5449 30.9254 11.827 30.3504L14.962 23.9825C14.9398 24.0043 14.9076 24.0151 14.8865 24.026C14.2244 24.3622 13.4756 24.742 12.6513 24.742Z" fill="#203A72"/>
<path d="M24.4535 20.9995C24.2802 21.0319 24.1069 21.0645 23.9436 21.0862C23.5648 21.1404 22.9783 21.2272 22.8161 21.3574C22.6528 21.4658 22.3928 21.9865 22.2306 22.3229C21.7963 23.1798 21.2541 24.2539 20.1144 24.6226C19.8766 24.6986 19.6156 24.742 19.3556 24.742C18.5313 24.742 17.7826 24.3623 17.1205 24.026C17.0994 24.0151 17.0771 24.0044 17.0449 23.9826L20.1799 30.3504C20.4621 30.9254 21.2541 30.9687 21.6007 30.4264L23.0649 28.1483C23.2282 27.8987 23.5215 27.7578 23.8248 27.7794L26.5254 28.0073C27.1553 28.0615 27.6107 27.3997 27.3286 26.8248L24.4535 20.9994V20.9995Z" fill="#203A72"/>
<path d="M9.12128 11.9695C9.12128 8.17033 12.2007 5.09045 16 5.09045C19.7993 5.09045 22.8798 8.17033 22.8798 11.9695C22.8798 15.7688 19.7993 18.8487 16 18.8487C12.2007 18.8487 9.12128 15.7688 9.12128 11.9695ZM19.7093 23.3851C20.8335 23.0199 21.1146 20.9793 22.05 20.2981C22.9954 19.6102 25.0206 19.9693 25.7082 19.024C26.3903 18.0881 25.4272 16.2763 25.7926 15.1517C26.1448 14.0666 28 13.1721 28 11.9695C28 10.7671 26.1448 9.87269 25.7926 8.78766C25.4272 7.66309 26.3903 5.85131 25.7082 4.91538C25.0206 3.97 22.9954 4.32915 22.05 3.64117C21.1146 2.95996 20.8335 0.919338 19.7093 0.554182C18.624 0.201803 17.2031 1.67643 16 1.67643C14.798 1.67643 13.376 0.201803 12.2907 0.554182C11.1665 0.919338 10.8865 2.95985 9.95001 3.64106C9.00463 4.32904 6.97945 3.96989 6.2918 4.91527C5.61081 5.85121 6.57286 7.66298 6.20848 8.78744C5.85632 9.87257 4 10.7671 4 11.9695C4 13.1721 5.85521 14.0666 6.20848 15.1516C6.57286 16.2761 5.61081 18.0878 6.2918 19.0238C6.97945 19.969 9.00463 19.61 9.95001 20.298C10.8865 20.9792 11.1665 23.0198 12.2907 23.385C13.376 23.7373 14.798 22.2628 16 22.2628C17.2031 22.2628 18.624 23.7373 19.7093 23.3851Z" fill="#203A72"/>
<path d="M20.2436 9.94938L17.6996 9.71508L16.6909 7.36741C16.4298 6.76208 15.5722 6.76207 15.3123 7.36729L14.3025 9.71497L11.7585 9.94915C11.1019 10.0096 10.8376 10.8256 11.333 11.2601L13.2538 12.9452L12.6894 15.4377C12.5439 16.0802 13.2382 16.5846 13.8048 16.2479L16.001 14.9418L18.1973 16.2478C18.7639 16.5846 19.4582 16.0801 19.3126 15.4376L18.7494 12.9455L20.6702 11.2604C21.1656 10.8259 20.9001 10.0098 20.2436 9.94938Z" fill="#14A0DE"/>
</svg>
