<svg width="37" height="35" viewBox="0 0 37 35" fill="none" xmlns="http://www.w3.org/2000/svg">
<path d="M10.0645 20.3795L7.58909 19.5925C7.56084 19.5817 7.53796 19.575 7.51105 19.5642L5.77286 25.8053C5.7621 25.839 5.75673 25.878 5.75 25.9116H8.52816L10.0645 20.3795Z" fill="#49A0DE"/>
<path d="M7.94661 18.4722L11.645 19.6454L11.6962 23.2671H14.3828L14.3102 18.6458C14.3048 18.0646 13.9254 17.5614 13.3779 17.3825L11.7123 16.8578L12.833 12.7531C12.8612 12.7464 12.8908 12.7464 12.9177 12.737L17.496 11.1602C18.0489 10.9692 18.4149 10.3974 18.2803 9.82833C18.1256 9.17583 17.4475 8.81392 16.8273 9.02649L12.7119 10.4445C12.4644 10.5293 12.2061 10.579 11.9451 10.5925L9.03909 10.7418C8.50902 10.7687 8.0704 11.1656 7.99102 11.6903L7.64123 13.9841L7.03582 16.9251C6.8959 17.5951 7.29277 18.2664 7.94661 18.4722Z" fill="#49A0DE"/>
<path d="M30.346 14.4553C30.2908 14.4781 30.2343 14.4997 30.1792 14.5172L27.7871 15.2773L28.0212 16.137C28.106 16.4383 28.2957 16.7074 28.558 16.8863L30.1509 17.9761H34.6592C34.565 17.8079 34.4305 17.6626 34.2637 17.5456L30.4805 14.9463L30.346 14.4553Z" fill="#243972"/>
<path d="M21.7783 9.69137L25.5924 8.21014L26.5369 11.6273L24.391 12.3094C23.8381 12.4884 23.4627 12.9915 23.4519 13.5673L23.3901 17.9761H26.0727L26.1225 14.5723L29.8222 13.3992C30.4532 13.1987 30.8447 12.5664 30.7384 11.9125L30.1761 8.35677L30.024 6.42215C29.9823 5.89073 29.6877 5.40507 29.2343 5.12254C28.7809 4.84002 28.2146 4.78889 27.7262 4.98262L20.9684 7.60876C20.3926 7.83209 20.1088 8.4792 20.3321 9.05502C20.5554 9.63083 21.2025 9.9147 21.7783 9.69137Z" fill="#243972"/>
<path d="M36.1619 19.2335H22.3612C21.8984 19.2335 21.523 19.6088 21.523 20.073V21.8785H16.7739C16.3111 21.8785 15.9358 22.2538 15.9358 22.7166V24.5234H11.1853C10.7225 24.5234 10.3472 24.8988 10.3472 25.3616V27.1684H5.59805C5.13525 27.1684 4.75988 27.5438 4.75988 28.0066V30.3098H0.838168C0.37402 30.3098 0 30.6852 0 31.148V33.6772C0 34.1347 0.371308 34.5073 0.830075 34.5073H36.1699C36.6287 34.5073 37 34.1347 37 33.6772V20.073C37 19.6088 36.6247 19.2335 36.1619 19.2335Z" fill="#243972"/>
<path d="M26.1075 4.70459C27.4071 4.70459 28.4606 3.65118 28.4606 2.35291C28.4606 1.05329 27.4071 -0.000126362 26.1075 -0.000126362C24.8092 -0.000126362 23.7559 1.05329 23.7559 2.35291C23.7559 3.65118 24.8092 4.70459 26.1075 4.70459Z" fill="#243972"/>
<path d="M10.8399 10.0054C12.1395 10.0054 13.1916 8.95196 13.1916 7.65235C13.1916 6.35408 12.1395 5.30065 10.8399 5.30065C9.54031 5.30065 8.48828 6.35408 8.48828 7.65235C8.48828 8.95196 9.54031 10.0054 10.8399 10.0054Z" fill="#49A0DE"/>
</svg>
