<svg width="33" height="32" viewBox="0 0 33 32" fill="none" xmlns="http://www.w3.org/2000/svg">
<path d="M16.4988 8.0332C17.9109 8.0332 19.0551 6.8879 19.0551 5.47583C19.0551 4.06377 17.9109 2.91846 16.4988 2.91846C15.0857 2.91846 13.9414 4.06377 13.9414 5.47583C13.9414 6.8879 15.0857 8.0332 16.4988 8.0332Z" fill="#029FEE"/>
<path d="M19.2893 19.3927C19.0473 17.6954 18.9257 15.964 18.9257 14.2471V10.9131H21.8364L22.3596 9.8152C22.5769 9.36099 22.8807 8.96343 23.2453 8.64003H9.75195C10.1176 8.96343 10.4214 9.36099 10.6377 9.8152L11.1619 10.9131H14.0716V14.2471C14.0716 15.963 13.95 17.6943 13.708 19.3927L12.6646 26.7322C12.5617 27.4573 13.0663 28.1278 13.7904 28.2308C13.8543 28.24 13.916 28.2441 13.9789 28.2441C14.6288 28.2441 15.1963 27.7673 15.29 27.105L16.3334 19.7656C16.3962 19.3258 16.4508 18.8829 16.4981 18.4369C16.5466 18.8829 16.6011 19.3258 16.664 19.7656L17.7073 27.105C17.801 27.7673 18.3685 28.2441 19.0184 28.2441C19.0813 28.2441 19.1431 28.24 19.2069 28.2308C19.931 28.1278 20.4356 27.4573 20.3326 26.7322L19.2893 19.3927Z" fill="#029FEE"/>
<path d="M32.8894 15.4429L30.399 10.2231C29.9406 9.26108 28.956 8.64003 27.891 8.64003H25.724C24.659 8.64003 23.6744 9.26108 23.2161 10.2231L20.7267 15.4429C20.4558 16.0093 20.6958 16.6881 21.2622 16.9579C21.8297 17.2288 22.5075 16.9878 22.7773 16.4213L24.3809 13.0606V14.2471C24.3809 15.964 24.2584 17.6954 24.0174 19.3927L22.973 26.7322C22.87 27.4573 23.3747 28.1278 24.0998 28.2318C24.1626 28.24 24.2254 28.2441 24.2883 28.2441C24.9371 28.2441 25.5046 27.7673 25.5983 27.105L26.6427 19.7666C26.7045 19.3258 26.7602 18.8819 26.8075 18.438C26.8549 18.8819 26.9105 19.3258 26.9733 19.7666L28.0167 27.105C28.1104 27.7673 28.6779 28.2441 29.3278 28.2441C29.3896 28.2441 29.4524 28.24 29.5153 28.2318C30.2403 28.1278 30.745 27.4573 30.642 26.7322L29.5987 19.3927C29.3567 17.6954 29.2341 15.964 29.2341 14.2471V13.0606L30.8377 16.4213C31.0324 16.8302 31.4392 17.0692 31.8636 17.0692C32.0283 17.0692 32.1942 17.0331 32.3528 16.9579C32.9193 16.6881 33.1593 16.0093 32.8894 15.4429Z" fill="#0E3A87"/>
<path d="M26.8074 8.0332C28.2194 8.0332 29.3647 6.8879 29.3647 5.47583C29.3647 4.06377 28.2194 2.91846 26.8074 2.91846C25.3953 2.91846 24.25 4.06377 24.25 5.47583C24.25 6.8879 25.3953 8.0332 26.8074 8.0332Z" fill="#0E3A87"/>
<path d="M9.78412 10.2231C9.32579 9.26108 8.34115 8.64003 7.27618 8.64003H5.10916C4.04419 8.64003 3.05955 9.26108 2.60122 10.2231L0.110789 15.4429C-0.159059 16.0093 0.0809161 16.6881 0.64739 16.9579C1.21489 17.2288 1.89262 16.9878 2.16247 16.4213L3.7661 13.0606V14.2471C3.7661 15.963 3.64353 17.6943 3.40149 19.3927L2.35816 26.7322C2.25516 27.4573 2.75982 28.1288 3.48491 28.2318C3.54774 28.24 3.61057 28.2441 3.6734 28.2441C4.32227 28.2441 4.88977 27.7673 4.98349 27.105L6.02684 19.7666C6.08967 19.3258 6.14528 18.8819 6.19266 18.438C6.24004 18.8819 6.29566 19.3258 6.35745 19.7666L7.40183 27.105C7.49555 27.7673 8.06305 28.2441 8.71192 28.2441C8.77475 28.2441 8.83758 28.24 8.90041 28.2318C9.6255 28.1278 10.1302 27.4573 10.0272 26.7322L8.98281 19.3938C8.7418 17.6943 8.61922 15.963 8.61922 14.2471V13.0606L10.2229 16.4213C10.4175 16.8302 10.8244 17.0692 11.2487 17.0692C11.4125 17.0692 11.5793 17.0331 11.7379 16.9579C12.3044 16.6881 12.5444 16.0093 12.2735 15.4429L9.78412 10.2231Z" fill="#0E3A87"/>
<path d="M6.19213 8.0332C7.60419 8.0332 8.74951 6.8879 8.74951 5.47583C8.74951 4.06377 7.60419 2.91846 6.19213 2.91846C4.78006 2.91846 3.63477 4.06377 3.63477 5.47583C3.63477 6.8879 4.78006 8.0332 6.19213 8.0332Z" fill="#0E3A87"/>
</svg>
