<svg width="36" height="34" viewBox="0 0 36 34" fill="none" xmlns="http://www.w3.org/2000/svg">
<path d="M10.5765 14.1635C10.0116 15.2223 9.606 16.3779 9.39416 17.5955L8.45909 17.6043C7.14452 17.6131 6.08594 18.6806 6.08594 19.9863V23.9741C6.08594 24.618 6.33294 25.2181 6.79176 25.6679C7.24157 26.118 7.83261 26.356 8.46781 26.356C8.47653 26.356 8.47652 26.356 8.48553 26.356L10.6204 26.3472C11.2295 26.3472 11.7322 25.8442 11.7322 25.2355V19.5452C11.7409 18.0543 12.1026 16.6426 12.7556 15.3987C12.4557 15.3193 12.1642 15.187 11.8998 15.0192L10.5765 14.1635Z" fill="#243972"/>
<path d="M33.1158 17.6029L32.163 17.594C31.2192 12.1593 26.4813 8.00392 20.7732 8.00392C19.6176 8.00392 18.4974 8.1803 17.4385 8.49819C17.1386 9.23916 16.7063 9.94498 16.1504 10.5892L16.4503 11.5241C16.4593 11.5506 16.468 11.5859 16.477 11.6124C17.7561 10.9155 19.2206 10.5186 20.7732 10.5186C25.7668 10.5186 29.825 14.5766 29.825 19.5702V27.334C29.825 29.3718 28.1666 31.0305 26.1285 31.0305H24.0643C23.9053 30.3953 23.3407 29.91 22.6526 29.91H18.903C18.0824 29.91 17.4121 30.5716 17.4121 31.4009V32.4331C17.4121 33.2537 18.0824 33.9243 18.903 33.9243H22.6526C23.3407 33.9243 23.9053 33.4391 24.0643 32.7948H26.1285C29.1372 32.7948 31.5896 30.3424 31.5896 27.334V26.3458L33.0896 26.3545C33.098 26.3545 33.098 26.3545 33.107 26.3545C33.7423 26.3545 34.3333 26.1165 34.7834 25.6664C35.2422 25.2166 35.4892 24.6165 35.4892 23.9726V19.9848C35.4892 18.6792 34.4213 17.6117 33.1158 17.6029Z" fill="#243972"/>
<path d="M11.6719 7.13316C10.9911 7.13316 10.4387 6.58106 10.4387 5.89995C10.4387 5.21884 10.9911 4.66645 11.6719 4.66645C12.353 4.66645 12.9054 5.21884 12.9054 5.89995C12.9054 6.58106 12.353 7.13316 11.6719 7.13316ZM7.83426 7.13316C7.15285 7.13316 6.60076 6.58106 6.60076 5.89995C6.60076 5.21884 7.15285 4.66645 7.83426 4.66645C8.51537 4.66645 9.06748 5.21884 9.06748 5.89995C9.06748 6.58106 8.51537 7.13316 7.83426 7.13316ZM3.99631 7.13316C3.3149 7.13316 2.7631 6.58106 2.7631 5.89995C2.7631 5.21884 3.3149 4.66645 3.99631 4.66645C4.67742 4.66645 5.22952 5.21884 5.22952 5.89995C5.22952 6.58106 4.67742 7.13316 3.99631 7.13316ZM13.5392 9.93491C14.8558 8.87924 15.6682 7.46239 15.6682 5.89995C15.6682 2.64141 12.161 6.10352e-05 7.83426 6.10352e-05C3.50756 6.10352e-05 0 2.64141 0 5.89995C0 9.1582 3.50756 11.7998 7.83426 11.7998C8.78968 11.7998 9.70151 11.6646 10.5483 11.4287L13.1385 13.084C13.7324 13.4635 14.4763 12.893 14.2633 12.2209L13.5392 9.93491Z" fill="#49A0DE"/>
<path d="M18.829 17.641C18.829 16.7133 18.0764 15.9616 17.1489 15.9616C16.2211 15.9616 15.4688 16.7133 15.4688 17.641C15.4688 18.5685 16.2211 19.3208 17.1489 19.3208C18.0764 19.3208 18.829 18.5685 18.829 17.641Z" fill="#243972"/>
<path d="M26.1058 17.641C26.1058 16.7133 25.3537 15.9616 24.4259 15.9616C23.4981 15.9616 22.7461 16.7133 22.7461 17.641C22.7461 18.5685 23.4981 19.3208 24.4259 19.3208C25.3537 19.3208 26.1058 18.5685 26.1058 17.641Z" fill="#243972"/>
<path d="M20.7875 26.4829C23.1202 26.4829 25.052 24.7662 25.3873 22.527C25.4416 22.164 25.1665 21.8321 24.7989 21.8321H16.7769C16.4099 21.8321 16.1342 22.164 16.1885 22.527C16.5241 24.7662 18.4556 26.4829 20.7875 26.4829Z" fill="#243972"/>
</svg>
