<svg width="32" height="32" viewBox="0 0 32 32" fill="none" xmlns="http://www.w3.org/2000/svg">
<path d="M15.7728 17.4923H12.8406C11.5941 17.4923 10.5823 16.5033 10.5475 15.2625C6.77953 14.7937 3.9212 13.7017 2.16602 12.8556V21.7971C2.16602 22.9235 3.10393 23.8379 4.25268 23.8379H18.5398C18.7572 19.9276 22.0099 16.8117 25.9779 16.8117C26.1376 16.8117 26.292 16.8176 26.4463 16.829V12.8556C24.6911 13.7017 21.8328 14.7937 18.0649 15.2625C18.0312 16.5033 17.0193 17.4923 15.7728 17.4923Z" fill="#203A72"/>
<path d="M11.8223 5.10741V3.96736C11.8223 3.47613 12.2212 3.0764 12.7125 3.0764H15.9011C16.3924 3.0764 16.7912 3.47613 16.7912 3.96736V5.10741H11.8223ZM26.3094 5.10741H18.792V3.96736C18.792 2.3702 17.4977 1.07537 15.9001 1.07537H12.7125C11.116 1.07537 9.82157 2.36998 9.82157 3.96703V5.10741H2.30416C1.58361 5.10741 1 5.69103 1 6.41082V10.0462C1 10.3737 1.16517 10.676 1.44665 10.844C2.56714 11.5141 5.7602 13.1908 10.5421 13.8203V13.7173C10.5421 12.448 11.5713 11.419 12.8407 11.419H15.7729C17.0423 11.419 18.0715 12.448 18.0715 13.7173V13.8203C22.8491 13.1908 26.0443 11.514 27.1669 10.8439C27.4484 10.6759 27.6125 10.3736 27.6125 10.0458V6.41082C27.6125 5.69103 27.0289 5.10741 26.3094 5.10741Z" fill="#203A72"/>
<path d="M15.7734 16.0625C16.2549 16.0625 16.644 15.6729 16.644 15.1919V13.7163C16.644 13.2353 16.2549 12.8456 15.7734 12.8456H12.8412C12.3609 12.8456 11.9707 13.2353 11.9707 13.7163V15.1919C11.9707 15.6729 12.3609 16.0625 12.8412 16.0625H15.7734Z" fill="#203A72"/>
<path d="M28.8982 23.3307L25.7736 26.455C25.6084 26.6202 25.3921 26.7026 25.1759 26.7026C24.9596 26.7026 24.7422 26.6202 24.577 26.455L22.9729 24.8501C22.6414 24.5196 22.6414 23.984 22.9729 23.6535C23.3022 23.3229 23.8391 23.3229 24.1695 23.6535L25.1759 24.6606L27.7016 22.1335C28.032 21.8035 28.5678 21.8035 28.8982 22.1335C29.2296 22.464 29.2296 23.0002 28.8982 23.3307ZM25.979 18.2418C22.6534 18.2418 19.957 20.9385 19.957 24.2635C19.957 27.5899 22.6534 30.2852 25.979 30.2852C29.3046 30.2852 32.001 27.5899 32.001 24.2635C32.001 20.9385 29.3046 18.2418 25.979 18.2418Z" fill="#14A0DE"/>
</svg>
