<svg width="33" height="32" viewBox="0 0 33 32" fill="none" xmlns="http://www.w3.org/2000/svg">
<path d="M13.1424 4.37132C13.6697 4.37132 14.0972 4.79885 14.0972 5.32735C14.0972 5.8546 13.6697 6.28339 13.1424 6.28339C12.6139 6.28339 12.1864 5.8546 12.1864 5.32735C12.1864 4.79885 12.6139 4.37132 13.1424 4.37132ZM16.6612 4.37132C17.1884 4.37132 17.6172 4.79885 17.6172 5.32735C17.6172 5.8546 17.1884 6.28339 16.6612 6.28339C16.1339 6.28339 15.7052 5.8546 15.7052 5.32735C15.7052 4.79885 16.1339 4.37132 16.6612 4.37132ZM20.1799 4.37132C20.7084 4.37132 21.136 4.79885 21.136 5.32735C21.136 5.8546 20.7084 6.28339 20.1799 6.28339C19.6527 6.28339 19.2239 5.8546 19.2239 5.32735C19.2239 4.79885 19.6527 4.37132 20.1799 4.37132ZM12.4606 9.05302C12.3148 9.48803 12.0231 10.0489 11.4385 10.7295C11.0671 11.1595 11.5033 11.7977 12.0356 11.5995C13.1374 11.1907 14.4026 10.6136 15.5718 10.0427C15.9258 10.0838 16.2885 10.1113 16.6612 10.1113C20.3619 10.1113 23.3622 7.9686 23.3622 5.32735C23.3622 2.68486 20.3619 0.542198 16.6612 0.542198C12.9592 0.542198 9.95898 2.68486 9.95898 5.32735C9.95898 6.83307 10.9374 8.17551 12.4606 9.05302Z" fill="#49A0DE"/>
<path d="M16.9534 18.3179C16.4947 17.4167 15.3928 17.059 14.4929 17.5189L11.0714 19.264C11.0714 19.264 9.17798 17.9527 8.56597 17.5065C8.18081 17.226 7.05401 16.3273 5.95464 15.9496C4.75679 15.5396 1.62571 15.2791 0.75817 17.3195C-0.157978 19.4759 -0.00219961 25.0538 0.0302083 29.0412C0.0327012 29.3902 0.258301 29.6582 0.606063 29.6582C1.4549 29.6582 6.79972 29.6582 7.19983 29.6582C7.59994 29.6582 7.74456 29.4376 7.79068 29.116C7.81935 28.9103 8.19077 24.3957 8.16959 22.4125C8.16709 22.2006 8.17086 21.9676 8.1746 21.7232L9.91341 22.9012C10.2213 23.1106 10.5802 23.2153 10.9392 23.2153C11.2234 23.2153 11.5088 23.1504 11.7719 23.0171L16.1544 20.7797C17.0556 20.321 17.4133 19.2179 16.9534 18.3179Z" fill="#243972"/>
<path d="M4.56506 14.7461C6.77378 14.7461 8.56492 12.9549 8.56492 10.745C8.56492 8.53748 6.77378 6.74632 4.56506 6.74632C2.35633 6.74632 0.566406 8.53748 0.566406 10.745C0.566406 12.9549 2.35633 14.7461 4.56506 14.7461Z" fill="#243972"/>
<path d="M32.995 21.2477L32.6284 18.2175C32.4066 16.3458 30.8156 14.9386 28.9294 14.9386H26.3211C24.4348 14.9386 22.8484 16.3458 22.6221 18.2175L22.2555 21.2477C22.2091 21.6411 22.4625 22.0133 22.8507 22.0954C23.4006 22.2127 23.9698 22.3026 24.5457 22.3793L24.9565 29.4613C24.987 30.0207 25.451 30.457 26.0122 30.457H29.2383C29.7984 30.457 30.2635 30.0207 30.294 29.4613L30.7048 22.3793C31.2819 22.3026 31.8499 22.2127 32.3998 22.0954C32.7879 22.0133 33.0425 21.6411 32.995 21.2477Z" fill="#203A72"/>
<path d="M27.6254 13.7246C29.5598 13.7246 31.1305 12.1553 31.1305 10.2184C31.1305 8.28256 29.5598 6.71328 27.6254 6.71328C25.6886 6.71328 24.1191 8.28256 24.1191 10.2184C24.1191 12.1553 25.6886 13.7246 27.6254 13.7246Z" fill="#203A72"/>
</svg>
