<svg width="32" height="33" viewBox="0 0 32 33" fill="none" xmlns="http://www.w3.org/2000/svg">
<path d="M24.4621 0.961973C22.1846 -0.600424 19.0673 -0.11949 17.1147 1.83319L15.9829 2.96375L14.6798 1.6582C12.2147 -0.804369 8.04244 -0.524879 5.96638 2.50297C4.4065 4.77921 4.88619 7.89519 6.83887 9.84661L15.1154 18.1232C15.5951 18.6028 16.3719 18.6028 16.8516 18.1232L25.3018 9.67287C27.7644 7.20778 27.4862 3.03803 24.4621 0.961973Z" fill="#14A0DE"/>
<path d="M12.5074 22.0108L7.43366 16.8175C7.20453 16.5834 6.8961 16.4524 6.55995 16.4474C6.23009 16.4449 5.91913 16.5733 5.68496 16.8075C5.29089 17.2028 5.21284 17.8146 5.49611 18.2981L5.64719 18.5574C6.44286 19.9159 7.35433 21.2051 8.37032 22.4087L9.31205 23.5216C9.45306 23.689 9.52106 23.9018 9.50218 24.1221C9.48455 24.3399 9.38254 24.5376 9.21384 24.6811C9.0464 24.8221 8.8324 24.8901 8.6146 24.8725C8.39553 24.8536 8.19658 24.7504 8.05558 24.5829L7.16298 23.5266C6.04375 22.2047 5.04411 20.7883 4.1729 19.2927L4.0772 19.129C3.43008 18.0173 3.58117 16.5985 4.48386 15.6819C4.56695 15.5988 4.65131 15.5183 4.73944 15.4478L2.75025 11.1748C2.52112 10.6838 2.01124 10.3514 1.46988 10.3438C1.05945 10.335 0.676718 10.4949 0.393447 10.7946C0.111435 11.0929 -0.0270826 11.4845 0.00439196 11.8937L0.864286 23.188C0.944861 24.2405 1.42578 25.2212 2.20761 25.9288L6.293 29.6264C6.54228 29.8518 6.69463 30.1653 6.71855 30.5014L6.81804 31.9052C6.84322 32.2652 7.14158 32.5435 7.50291 32.5435H13.4302C13.8306 32.5435 14.1453 32.2023 14.1138 31.8032L13.5082 24.1171C13.4176 23.3277 13.0626 22.5786 12.5074 22.0108Z" fill="#203A72"/>
<path d="M31.6053 10.7946C31.3221 10.4949 30.9406 10.335 30.5302 10.3438C29.9888 10.3514 29.4789 10.6838 29.2498 11.1748L27.2606 15.4478C27.3475 15.5183 27.4318 15.5988 27.5149 15.6819C28.4189 16.5985 28.57 18.0173 27.9216 19.129L27.8272 19.2927C26.9559 20.7883 25.955 22.2047 24.8371 23.5266L23.9432 24.5829C23.8022 24.7504 23.6045 24.8536 23.3855 24.8725C23.1664 24.8901 22.9536 24.8221 22.7862 24.6811C22.6175 24.5376 22.5155 24.3399 22.4966 24.1221C22.479 23.9018 22.5457 23.689 22.688 23.5216L23.6284 22.4087C24.6457 21.2051 25.5572 19.9159 26.3529 18.5574L26.5039 18.2981C26.7872 17.8146 26.7092 17.2028 26.3151 16.8075C26.0809 16.5733 25.77 16.4449 25.4401 16.4474C25.104 16.4524 24.7955 16.5834 24.5664 16.8175L19.4927 22.0108C18.9362 22.5786 18.5824 23.3277 18.4918 24.1171L17.885 31.8032C17.8535 32.2023 18.1682 32.5435 18.5686 32.5435H24.4971C24.8572 32.5435 25.1556 32.2652 25.182 31.9052L25.2802 30.5014C25.3041 30.1653 25.4577 29.8518 25.707 29.6264L29.7924 25.9288C30.5742 25.2212 31.0552 24.2405 31.1345 23.188L31.9956 11.8937C32.0271 11.4845 31.8886 11.0929 31.6053 10.7946Z" fill="#203A72"/>
</svg>
