<svg width="348" height="136" viewBox="0 0 348 136" fill="none" xmlns="http://www.w3.org/2000/svg">
<path d="M295.632 75.5956C295.632 75.5956 295.531 76.643 295.294 77.1498C287.371 94.1444 277.607 110.615 268.958 127.272C266.154 129.468 259.835 130.769 257.251 127.694C255.545 125.667 255.443 120.954 256.592 118.707C258.383 115.21 264.566 108.622 267.252 104.872C274.228 95.1411 285.513 79.4811 288.233 67.9937C289.331 63.3481 287.49 53.9723 286.611 48.9044C286.29 47.063 284.466 36.7919 283.79 36.0993C273.941 33.7512 264.177 30.7442 255.359 25.6762C251.845 23.649 240.898 17.01 243.719 12.0772C244.801 10.1851 246.693 11.0467 248.297 11.6211C254.159 13.6651 261.609 19.6622 267.775 22.551C287.253 31.6395 301.832 29.1055 317.982 15.422C323.101 11.0805 332.899 -1.70767 340.517 2.16088C343.305 3.57991 341.092 6.29971 339.74 8.02282C332.544 17.0945 319.35 24.5613 310.177 31.6733C307.035 34.731 305.954 43.6168 305.717 47.9077C304.434 71.7778 313.184 96.1547 318.641 119.062C318.252 123.809 315.786 125.616 311.681 122.643C306.19 118.656 302.457 104.128 300.869 97.5568C299.163 90.3941 298.014 82.9611 296.882 75.7815L295.598 75.5956H295.632Z" fill="white"/>
<path d="M139.571 121.63C139.267 121.546 138.524 120.65 138.558 120.177V88.9925C139.352 86.1544 151.363 85.9517 153.88 86.2051C159.86 86.8301 166.6 90.8676 168.864 96.5606C170.57 100.868 169.776 110.058 169.76 115.092C169.76 117.441 170.891 117.914 168.307 119.924C167.817 120.296 165.317 121.613 164.928 121.613H139.588L139.571 121.63ZM144.014 90.175V118.049L144.656 118.691H163.661C165.046 118.691 164.286 116.191 164.269 115.549C164.235 110.835 165.08 101.223 163.526 97.287C161.972 93.3509 156.938 89.9554 152.9 89.3303C151.346 89.0938 144.47 88.5195 144.014 90.1919V90.175Z" fill="white"/>
<path d="M103.47 91.2223L102.169 92.2528C99.0437 100.429 97.7261 111.933 94.0771 119.637C93.621 120.6 93.1818 121.461 92.202 122.019L90.3437 120.177C87.0158 111.173 85.2589 100.699 81.9647 91.8135C81.7282 91.1885 81.8634 90.7999 81.0694 91.4419L76.7447 120.481C74.8865 123.066 73.2985 121.985 73.4674 118.91C74.0249 109.602 77.2515 99.331 77.7921 89.8708C78.1806 86.9145 80.7822 85.3097 83.3668 87.0328L91.8303 114.89C92.5736 115.042 92.6919 114.332 92.8608 113.808C95.6144 105.615 97.2024 96.3916 100.159 88.1646C101.73 85.09 105.311 86.0529 106.308 89.0093L111.004 120.194L110.666 121.022C109.23 122.508 107.896 121.917 107.355 120.059L103.453 91.2392L103.47 91.2223Z" fill="white"/>
<path d="M281.849 17.1635C280.903 16.133 279.636 14.0552 279.348 12.6868C276.477 -1.35145 297.661 -1.99339 302.61 8.42971C308.574 20.9983 289.873 25.9142 281.849 17.1466V17.1635Z" fill="white"/>
<path d="M236.082 104.939C234.73 119.637 222.348 123.877 209.475 124.4C208.884 124.417 208.715 124.721 208.208 123.944C209.559 120.414 213.884 121.765 216.671 120.549L208.732 93.8575C208.495 91.4756 208.309 89.4822 209.712 87.4381C210.607 86.1542 211.874 84.8196 212.735 86.8806L221.52 119.501C227.618 116.663 230.102 111.443 230.592 104.923C230.929 100.429 229.865 93.8913 230.693 89.82C231.284 86.9313 236.082 84.5156 236.082 86.34C236.082 92.1513 236.605 99.2971 236.082 104.923V104.939Z" fill="white"/>
<path d="M181.18 86.5777H194.052C197.499 86.5777 201.908 91.3585 202.296 94.8047C203.715 107.964 192.988 119.536 180.876 122.83L179.913 122.256C179.372 120.195 186.163 117.34 187.717 116.124C192.093 112.711 195.877 106.292 196.384 100.717C197.769 85.2769 186.079 90.3787 175.689 89.534V80.4455C175.689 78.148 181.18 75.4451 181.18 77.4891V86.5777Z" fill="white"/>
<path d="M57.0146 102.626H67.3532C68.4344 102.626 69.0087 105.329 66.7282 105.836C66.0862 105.988 65.8159 105.583 65.6639 105.583H57.2173L56.5753 106.224V117.627L57.2173 118.269H68.1979C68.8229 118.269 70.1575 120.482 68.2992 121.327C67.1505 121.868 56.4233 121.851 54.7509 121.53C54.3285 121.445 53.8217 121.327 53.5852 120.922L53.3994 87.4054C53.9738 86.7804 54.7171 86.6452 55.5111 86.5608C57.8423 86.2905 64.6503 86.2567 66.8971 86.5946C70.0392 87.0845 68.5695 89.9394 67.7755 89.9394H57.2173C56.1699 90.6151 56.9977 91.5949 57.0314 92.6592C57.099 95.9703 56.7781 99.3658 57.0146 102.609V102.626Z" fill="white"/>
<path d="M28.513 118.252C30.2192 118.725 29.5773 121.259 27.6515 121.614C25.8946 121.952 17.3128 121.884 15.4377 121.597C14.3396 121.428 13.4105 120.989 13.4781 119.756L13.5794 87.7094C13.7146 87.2701 14.0693 87.0674 14.4579 86.8985C15.4208 86.4424 25.827 86.3241 27.2291 86.5944C28.4286 86.8309 29.5773 88.1317 28.7495 89.2466C28.5975 89.4831 27.8542 89.973 27.6684 89.973H17.5324C16.9243 90.3447 16.9412 90.8177 16.8736 91.4259C16.6709 93.2165 16.6033 99.94 16.8905 101.579C16.975 102.052 17.1101 102.373 17.5156 102.643H27.6515C28.7326 102.643 29.307 105.346 27.0264 105.853C26.3845 106.005 26.1142 105.599 25.9622 105.599H17.5156L16.8736 106.241V117.644L17.5156 118.286C20.3874 118.81 26.0128 117.593 28.4961 118.286L28.513 118.252Z" fill="white"/>
<path d="M38.8553 118.251H48.7885C49.971 118.251 50.3764 121.157 47.9269 121.613C46.5417 121.883 38.3654 121.866 36.9632 121.613C36.1355 121.461 35.4935 120.802 35.1388 120.059L35.0205 88.4514C35.4597 85.1742 38.7201 85.8837 38.8553 88.8907V118.251Z" fill="white"/>
<path d="M127.121 126.699L124.435 126.631L123.742 126.057V78.5529C124.435 78.215 127.121 77.7758 127.121 78.7556V126.682V126.699Z" fill="white"/>
</svg>
